REM DIRINDEX 1\2,1\3,1\4
REM DIRNAME cjc031,folder01,folder02,folder03
TITLE ""
FILE "CD1-23.mp3" MP3
  TRACK 01 AUDIO
    TITLE "2:cjc031_1468"
    INDEX 01 00:00:00
  TRACK 02 AUDIO
    TITLE "3:cjc031_1469"
    INDEX 01 00:01:17
  TRACK 03 AUDIO
    TITLE "2:cjc031_1470"
    INDEX 01 00:03:57
  TRACK 04 AUDIO
    TITLE "3:cjc031_1471"
    INDEX 01 00:05:09
  TRACK 05 AUDIO
    TITLE "2:cjc031_1472"
    INDEX 01 00:06:49
  TRACK 06 AUDIO
    TITLE "3:cjc031_1473"
    INDEX 01 00:08:09
  TRACK 07 AUDIO
    TITLE "2:cjc031_1474"
    INDEX 01 00:09:45
  TRACK 08 AUDIO
    TITLE "3:cjc031_1475"
    INDEX 01 00:11:11
  TRACK 09 AUDIO
    TITLE "2:cjc031_1476"
    INDEX 01 00:12:56
  TRACK 10 AUDIO
    TITLE "3:cjc031_1477"
    INDEX 01 00:14:11
  TRACK 11 AUDIO
    TITLE "2:cjc031_1478"
    INDEX 01 00:15:52
  TRACK 12 AUDIO
    TITLE "3:cjc031_1479"
    INDEX 01 00:17:04
  TRACK 13 AUDIO
    TITLE "2:cjc031_1480"
    INDEX 01 00:18:33
  TRACK 14 AUDIO
    TITLE "3:cjc031_1481"
    INDEX 01 00:19:56
  TRACK 15 AUDIO
    TITLE "2:cjc031_1482"
    INDEX 01 00:21:37
  TRACK 16 AUDIO
    TITLE "3:cjc031_1483"
    INDEX 01 00:22:60
  TRACK 17 AUDIO
    TITLE "2:cjc031_1484"
    INDEX 01 00:24:35
  TRACK 18 AUDIO
    TITLE "3:cjc031_1485"
    INDEX 01 00:25:54
  TRACK 19 AUDIO
    TITLE "2:cjc031_1486"
    INDEX 01 00:27:61
  TRACK 20 AUDIO
    TITLE "3:cjc031_1487"
    INDEX 01 00:29:36
  TRACK 21 AUDIO
    TITLE "2:cjc031_1488"
    INDEX 01 00:31:08
  TRACK 22 AUDIO
    TITLE "3:cjc031_1489"
    INDEX 01 00:32:35
  TRACK 23 AUDIO
    TITLE "2:cjc031_1490"
    INDEX 01 00:34:10
  TRACK 24 AUDIO
    TITLE "3:cjc031_1491"
    INDEX 01 00:35:41
  TRACK 25 AUDIO
    TITLE "2:cjc031_1492"
    INDEX 01 00:37:18
  TRACK 26 AUDIO
    TITLE "3:cjc031_1493"
    INDEX 01 00:38:35
  TRACK 27 AUDIO
    TITLE "2:cjc031_1494"
    INDEX 01 00:40:17
  TRACK 28 AUDIO
    TITLE "3:cjc031_1495"
    INDEX 01 00:41:55
  TRACK 29 AUDIO
    TITLE "2:cjc031_1496"
    INDEX 01 00:43:33
  TRACK 30 AUDIO
    TITLE "3:cjc031_1497"
    INDEX 01 00:44:65
  TRACK 31 AUDIO
    TITLE "2:cjc031_1498"
    INDEX 01 00:46:11
  TRACK 32 AUDIO
    TITLE "3:cjc031_1499"
    INDEX 01 00:47:50
  TRACK 33 AUDIO
    TITLE "2:cjc031_1500"
    INDEX 01 00:49:08
  TRACK 34 AUDIO
    TITLE "3:cjc031_1501"
    INDEX 01 00:50:27
  TRACK 35 AUDIO
    TITLE "2:cjc031_1502"
    INDEX 01 00:52:12
  TRACK 36 AUDIO
    TITLE "3:cjc031_1503"
    INDEX 01 00:53:37
  TRACK 37 AUDIO
    TITLE "2:cjc031_1504"
    INDEX 01 00:55:04
  TRACK 38 AUDIO
    TITLE "3:cjc031_1505"
    INDEX 01 00:56:31
  TRACK 39 AUDIO
    TITLE "2:cjc031_1506"
    INDEX 01 00:57:68
  TRACK 40 AUDIO
    TITLE "3:cjc031_1507"
    INDEX 01 00:59:26
  TRACK 41 AUDIO
    TITLE "2:cjc031_1508"
    INDEX 01 01:00:49
  TRACK 42 AUDIO
    TITLE "3:cjc031_1509"
    INDEX 01 01:01:70
  TRACK 43 AUDIO
    TITLE "2:cjc031_1510"
    INDEX 01 01:04:19
  TRACK 44 AUDIO
    TITLE "3:cjc031_1511"
    INDEX 01 01:05:44
  TRACK 45 AUDIO
    TITLE "2:cjc031_1512"
    INDEX 01 01:07:23
  TRACK 46 AUDIO
    TITLE "3:cjc031_1513"
    INDEX 01 01:08:27
  TRACK 47 AUDIO
    TITLE "2:cjc031_1514"
    INDEX 01 01:09:71
  TRACK 48 AUDIO
    TITLE "3:cjc031_1515"
    INDEX 01 01:11:56
  TRACK 49 AUDIO
    TITLE "2:cjc031_1516"
    INDEX 01 01:13:40
  TRACK 50 AUDIO
    TITLE "3:cjc031_1517"
    INDEX 01 01:14:55
  TRACK 51 AUDIO
    TITLE "2:cjc031_1518"
    INDEX 01 01:16:22
  TRACK 52 AUDIO
    TITLE "3:cjc031_1519"
    INDEX 01 01:17:43
  TRACK 53 AUDIO
    TITLE "2:cjc031_1520"
    INDEX 01 01:19:13
  TRACK 54 AUDIO
    TITLE "3:cjc031_1521"
    INDEX 01 01:20:42
  TRACK 55 AUDIO
    TITLE "2:cjc031_1522"
    INDEX 01 01:22:25
  TRACK 56 AUDIO
    TITLE "3:cjc031_1523"
    INDEX 01 01:23:46
  TRACK 57 AUDIO
    TITLE "2:cjc031_1524"
    INDEX 01 01:24:67
  TRACK 58 AUDIO
    TITLE "3:cjc031_1525"
    INDEX 01 01:26:17
  TRACK 59 AUDIO
    TITLE "2:cjc031_1526"
    INDEX 01 01:27:71
  TRACK 60 AUDIO
    TITLE "3:cjc031_1527"
    INDEX 01 01:29:25
  TRACK 61 AUDIO
    TITLE "2:cjc031_1528"
    INDEX 01 01:30:60
  TRACK 62 AUDIO
    TITLE "3:cjc031_1529"
    INDEX 01 01:32:19
  TRACK 63 AUDIO
    TITLE "2:cjc031_1530"
    INDEX 01 01:33:64
  TRACK 64 AUDIO
    TITLE "3:cjc031_1531"
    INDEX 01 01:35:06
  TRACK 65 AUDIO
    TITLE "2:cjc031_1532"
    INDEX 01 01:36:29
  TRACK 66 AUDIO
    TITLE "3:cjc031_1533"
    INDEX 01 01:37:48
  TRACK 67 AUDIO
    TITLE "2:cjc031_1534"
    INDEX 01 01:39:12
  TRACK 68 AUDIO
    TITLE "3:cjc031_1535"
    INDEX 01 01:40:46
  TRACK 69 AUDIO
    TITLE "2:cjc031_1536"
    INDEX 01 01:42:02
  TRACK 70 AUDIO
    TITLE "3:cjc031_1537"
    INDEX 01 01:43:19
  TRACK 71 AUDIO
    TITLE "2:cjc031_1538"
    INDEX 01 01:44:73
  TRACK 72 AUDIO
    TITLE "3:cjc031_1539"
    INDEX 01 01:46:27
  TRACK 73 AUDIO
    TITLE "2:cjc031_1540"
    INDEX 01 01:47:60
  TRACK 74 AUDIO
    TITLE "3:cjc031_1541"
    INDEX 01 01:48:73
  TRACK 75 AUDIO
    TITLE "2:cjc031_1542"
    INDEX 01 01:50:41
  TRACK 76 AUDIO
    TITLE "3:cjc031_1543"
    INDEX 01 01:52:02
  TRACK 77 AUDIO
    TITLE "2:cjc031_1544"
    INDEX 01 01:53:14
  TRACK 78 AUDIO
    TITLE "3:cjc031_1545"
    INDEX 01 01:54:35
  TRACK 79 AUDIO
    TITLE "2:cjc031_1546"
    INDEX 01 01:56:12
  TRACK 80 AUDIO
    TITLE "3:cjc031_1547"
    INDEX 01 01:57:33
  TRACK 81 AUDIO
    TITLE "0:"
    INDEX 01 01:58:74
